<svg viewBox="0 0 290 270" fill="none" xmlns="http://www.w3.org/2000/svg">
<rect width="290" height="270" fill="#FFF200"/>
<g filter="url(#filter0_d_0_1)">
<mask id="path-2-outside-1_0_1" maskUnits="userSpaceOnUse" x="44" y="92" width="199" height="91" fill="black">
<rect fill="white" x="44" y="92" width="199" height="91"/>
<path d="M141.344 173H77.344C73.248 173 69.4933 172.019 66.08 170.056C62.6667 168.008 59.936 165.32 57.888 161.992C55.9253 158.579 54.944 154.781 54.944 150.6C54.944 146.419 55.9253 142.664 57.888 139.336C59.936 135.923 62.6667 133.235 66.08 131.272C69.4933 129.224 73.248 128.2 77.344 128.2H122.144V141H77.344C74.6987 141 72.4373 141.939 70.56 143.816C68.6827 145.693 67.744 147.955 67.744 150.6C67.744 153.245 68.6827 155.507 70.56 157.384C72.4373 159.261 74.6987 160.2 77.344 160.2H128.544V125C128.544 122.355 127.605 120.093 125.728 118.216C123.851 116.339 121.589 115.4 118.944 115.4H67.744V102.6H118.944C123.125 102.6 126.88 103.624 130.208 105.672C133.621 107.635 136.309 110.323 138.272 113.736C140.32 117.064 141.344 120.819 141.344 125V173ZM232.688 150.6C232.688 154.781 231.664 158.579 229.616 161.992C227.653 165.32 224.965 168.008 221.552 170.056C218.224 172.019 214.469 173 210.288 173H155.888V160.2H210.288C212.933 160.2 215.195 159.261 217.072 157.384C218.949 155.507 219.888 153.245 219.888 150.6C219.888 147.955 218.949 145.693 217.072 143.816C215.195 141.939 212.933 141 210.288 141H175.088C171.589 141 168.347 140.147 165.36 138.44C162.459 136.733 160.155 134.429 158.448 131.528C156.741 128.541 155.888 125.299 155.888 121.8C155.888 118.216 156.741 114.973 158.448 112.072C160.155 109.171 162.459 106.867 165.36 105.16C168.347 103.453 171.589 102.6 175.088 102.6H226.288V115.4H175.088C173.296 115.4 171.76 116.04 170.48 117.32C169.285 118.515 168.688 120.008 168.688 121.8C168.688 123.592 169.285 125.128 170.48 126.408C171.76 127.603 173.296 128.2 175.088 128.2H210.288C214.469 128.2 218.224 129.224 221.552 131.272C224.965 133.235 227.653 135.923 229.616 139.336C231.664 142.664 232.688 146.419 232.688 150.6Z"/>
</mask>
<path d="M141.344 173H77.344C73.248 173 69.4933 172.019 66.08 170.056C62.6667 168.008 59.936 165.32 57.888 161.992C55.9253 158.579 54.944 154.781 54.944 150.6C54.944 146.419 55.9253 142.664 57.888 139.336C59.936 135.923 62.6667 133.235 66.08 131.272C69.4933 129.224 73.248 128.2 77.344 128.2H122.144V141H77.344C74.6987 141 72.4373 141.939 70.56 143.816C68.6827 145.693 67.744 147.955 67.744 150.6C67.744 153.245 68.6827 155.507 70.56 157.384C72.4373 159.261 74.6987 160.2 77.344 160.2H128.544V125C128.544 122.355 127.605 120.093 125.728 118.216C123.851 116.339 121.589 115.4 118.944 115.4H67.744V102.6H118.944C123.125 102.6 126.88 103.624 130.208 105.672C133.621 107.635 136.309 110.323 138.272 113.736C140.32 117.064 141.344 120.819 141.344 125V173ZM232.688 150.6C232.688 154.781 231.664 158.579 229.616 161.992C227.653 165.32 224.965 168.008 221.552 170.056C218.224 172.019 214.469 173 210.288 173H155.888V160.2H210.288C212.933 160.2 215.195 159.261 217.072 157.384C218.949 155.507 219.888 153.245 219.888 150.6C219.888 147.955 218.949 145.693 217.072 143.816C215.195 141.939 212.933 141 210.288 141H175.088C171.589 141 168.347 140.147 165.36 138.44C162.459 136.733 160.155 134.429 158.448 131.528C156.741 128.541 155.888 125.299 155.888 121.8C155.888 118.216 156.741 114.973 158.448 112.072C160.155 109.171 162.459 106.867 165.36 105.16C168.347 103.453 171.589 102.6 175.088 102.6H226.288V115.4H175.088C173.296 115.4 171.76 116.04 170.48 117.32C169.285 118.515 168.688 120.008 168.688 121.8C168.688 123.592 169.285 125.128 170.48 126.408C171.76 127.603 173.296 128.2 175.088 128.2H210.288C214.469 128.2 218.224 129.224 221.552 131.272C224.965 133.235 227.653 135.923 229.616 139.336C231.664 142.664 232.688 146.419 232.688 150.6Z" fill="black"/>
<path d="M141.344 173V183H151.344V173H141.344ZM66.08 170.056L60.935 178.631L61.0147 178.679L61.0953 178.725L66.08 170.056ZM57.888 161.992L49.2189 166.977L49.2933 167.106L49.3714 167.233L57.888 161.992ZM57.888 139.336L49.3131 134.191L49.2936 134.224L49.2743 134.256L57.888 139.336ZM66.08 131.272L71.0647 139.941L71.1453 139.895L71.225 139.847L66.08 131.272ZM122.144 128.2H132.144V118.2H122.144V128.2ZM122.144 141V151H132.144V141H122.144ZM70.56 143.816L63.4889 136.745L63.4889 136.745L70.56 143.816ZM70.56 157.384L77.6311 150.313L77.6311 150.313L70.56 157.384ZM128.544 160.2V170.2H138.544V160.2H128.544ZM125.728 118.216L132.799 111.145L132.799 111.145L125.728 118.216ZM67.744 115.4H57.744V125.4H67.744V115.4ZM67.744 102.6V92.6H57.744V102.6H67.744ZM130.208 105.672L124.967 114.189L125.094 114.267L125.223 114.341L130.208 105.672ZM138.272 113.736L129.603 118.721L129.677 118.85L129.755 118.977L138.272 113.736ZM141.344 173V163H77.344V173V183H141.344V173ZM77.344 173V163C74.9239 163 72.899 162.442 71.0647 161.387L66.08 170.056L61.0953 178.725C66.0876 181.596 71.5721 183 77.344 183V173ZM66.08 170.056L71.225 161.481C69.1599 160.242 67.5961 158.687 66.4046 156.751L57.888 161.992L49.3714 167.233C52.2759 171.953 56.1735 175.774 60.935 178.631L66.08 170.056ZM57.888 161.992L66.5571 157.007C65.5208 155.205 64.944 153.144 64.944 150.6H54.944H44.944C44.944 156.418 46.3299 161.952 49.2189 166.977L57.888 161.992ZM54.944 150.6H64.944C64.944 148.054 65.5208 146.079 66.5017 144.416L57.888 139.336L49.2743 134.256C46.3299 139.249 44.944 144.784 44.944 150.6H54.944ZM57.888 139.336L66.4629 144.481C67.6441 142.512 69.1458 141.044 71.0647 139.941L66.08 131.272L61.0953 122.603C56.1876 125.425 52.2279 129.333 49.3131 134.191L57.888 139.336ZM66.08 131.272L71.225 139.847C73.0375 138.759 75.0053 138.2 77.344 138.2V128.2V118.2C71.4907 118.2 65.9491 119.689 60.935 122.697L66.08 131.272ZM77.344 128.2V138.2H122.144V128.2V118.2H77.344V128.2ZM122.144 128.2H112.144V141H122.144H132.144V128.2H122.144ZM122.144 141V131H77.344V141V151H122.144V141ZM77.344 141V131C72.0357 131 67.234 133 63.4889 136.745L70.56 143.816L77.6311 150.887C77.6838 150.834 77.6967 150.83 77.6654 150.852C77.6326 150.874 77.5749 150.908 77.4978 150.94C77.4206 150.972 77.354 150.99 77.311 150.998C77.2697 151.006 77.2763 151 77.344 151V141ZM70.56 143.816L63.4889 136.745C59.7439 140.49 57.744 145.292 57.744 150.6H67.744H77.744C77.744 150.532 77.7498 150.526 77.7419 150.567C77.7337 150.61 77.716 150.677 77.6839 150.754C77.6519 150.831 77.618 150.889 77.5957 150.921C77.5744 150.953 77.5783 150.94 77.6311 150.887L70.56 143.816ZM67.744 150.6H57.744C57.744 155.908 59.7439 160.71 63.4889 164.455L70.56 157.384L77.6311 150.313C77.5783 150.26 77.5744 150.247 77.5957 150.279C77.618 150.311 77.6519 150.369 77.6839 150.446C77.716 150.523 77.7337 150.59 77.7419 150.633C77.7498 150.674 77.744 150.668 77.744 150.6H67.744ZM70.56 157.384L63.4889 164.455C67.234 168.2 72.0357 170.2 77.344 170.2V160.2V150.2C77.2763 150.2 77.2697 150.194 77.311 150.202C77.354 150.21 77.4206 150.228 77.4978 150.26C77.5749 150.292 77.6326 150.326 77.6654 150.348C77.6967 150.37 77.6838 150.366 77.6311 150.313L70.56 157.384ZM77.344 160.2V170.2H128.544V160.2V150.2H77.344V160.2ZM128.544 160.2H138.544V125H128.544H118.544V160.2H128.544ZM128.544 125H138.544C138.544 119.692 136.544 114.89 132.799 111.145L125.728 118.216L118.657 125.287C118.71 125.34 118.714 125.353 118.692 125.321C118.67 125.289 118.636 125.231 118.604 125.154C118.572 125.077 118.554 125.01 118.546 124.967C118.538 124.926 118.544 124.932 118.544 125H128.544ZM125.728 118.216L132.799 111.145C129.054 107.4 124.252 105.4 118.944 105.4V115.4V125.4C119.012 125.4 119.018 125.406 118.977 125.398C118.934 125.39 118.867 125.372 118.79 125.34C118.713 125.308 118.655 125.274 118.623 125.252C118.591 125.23 118.604 125.234 118.657 125.287L125.728 118.216ZM118.944 115.4V105.4H67.744V115.4V125.4H118.944V115.4ZM67.744 115.4H77.744V102.6H67.744H57.744V115.4H67.744ZM67.744 102.6V112.6H118.944V102.6V92.6H67.744V102.6ZM118.944 102.6V112.6C121.41 112.6 123.326 113.179 124.967 114.189L130.208 105.672L135.449 97.1554C130.434 94.0692 124.841 92.6 118.944 92.6V102.6ZM130.208 105.672L125.223 114.341C127.105 115.423 128.521 116.839 129.603 118.721L138.272 113.736L146.941 108.751C144.097 103.806 140.138 99.8466 135.193 97.0029L130.208 105.672ZM138.272 113.736L129.755 118.977C130.765 120.618 131.344 122.534 131.344 125H141.344H151.344C151.344 119.103 149.875 113.51 146.789 108.495L138.272 113.736ZM141.344 125H131.344V173H141.344H151.344V125H141.344ZM229.616 161.992L221.041 156.847L221.022 156.88L221.002 156.912L229.616 161.992ZM221.552 170.056L226.632 178.67L226.664 178.65L226.697 178.631L221.552 170.056ZM155.888 173H145.888V183H155.888V173ZM155.888 160.2V150.2H145.888V160.2H155.888ZM217.072 157.384L224.143 164.455L224.143 164.455L217.072 157.384ZM217.072 143.816L224.143 136.745L224.143 136.745L217.072 143.816ZM165.36 138.44L160.29 147.059L160.344 147.091L160.399 147.122L165.36 138.44ZM158.448 131.528L149.766 136.489L149.797 136.544L149.829 136.598L158.448 131.528ZM158.448 112.072L167.067 117.142H167.067L158.448 112.072ZM165.36 105.16L160.399 96.4776L160.344 96.5088L160.29 96.5406L165.36 105.16ZM226.288 102.6H236.288V92.6H226.288V102.6ZM226.288 115.4V125.4H236.288V115.4H226.288ZM170.48 117.32L163.409 110.249V110.249L170.48 117.32ZM170.48 126.408L163.169 133.231L163.405 133.483L163.657 133.719L170.48 126.408ZM221.552 131.272L216.311 139.789L216.438 139.867L216.567 139.941L221.552 131.272ZM229.616 139.336L220.947 144.321L221.021 144.45L221.099 144.577L229.616 139.336ZM232.688 150.6H222.688C222.688 153.064 222.109 155.068 221.041 156.847L229.616 161.992L238.191 167.137C241.219 162.09 242.688 156.498 242.688 150.6H232.688ZM229.616 161.992L221.002 156.912C219.913 158.76 218.436 160.264 216.407 161.481L221.552 170.056L226.697 178.631C231.495 175.752 235.394 171.88 238.23 167.072L229.616 161.992ZM221.552 170.056L216.472 161.442C214.809 162.423 212.835 163 210.288 163V173V183C216.104 183 221.639 181.614 226.632 178.67L221.552 170.056ZM210.288 173V163H155.888V173V183H210.288V173ZM155.888 173H165.888V160.2H155.888H145.888V173H155.888ZM155.888 160.2V170.2H210.288V160.2V150.2H155.888V160.2ZM210.288 160.2V170.2C215.596 170.2 220.398 168.2 224.143 164.455L217.072 157.384L210.001 150.313C209.948 150.366 209.935 150.37 209.967 150.348C209.999 150.326 210.057 150.292 210.134 150.26C210.211 150.228 210.278 150.21 210.321 150.202C210.362 150.194 210.356 150.2 210.288 150.2V160.2ZM217.072 157.384L224.143 164.455C227.888 160.71 229.888 155.908 229.888 150.6H219.888H209.888C209.888 150.668 209.882 150.674 209.89 150.633C209.898 150.59 209.916 150.523 209.948 150.446C209.98 150.369 210.014 150.311 210.036 150.279C210.058 150.247 210.054 150.26 210.001 150.313L217.072 157.384ZM219.888 150.6H229.888C229.888 145.292 227.888 140.49 224.143 136.745L217.072 143.816L210.001 150.887C210.054 150.94 210.058 150.953 210.036 150.921C210.014 150.889 209.98 150.831 209.948 150.754C209.916 150.677 209.898 150.61 209.89 150.567C209.882 150.526 209.888 150.532 209.888 150.6H219.888ZM217.072 143.816L224.143 136.745C220.398 133 215.596 131 210.288 131V141V151C210.356 151 210.362 151.006 210.321 150.998C210.278 150.99 210.211 150.972 210.134 150.94C210.057 150.908 209.999 150.874 209.967 150.852C209.935 150.83 209.948 150.834 210.001 150.887L217.072 143.816ZM210.288 141V131H175.088V141V151H210.288V141ZM175.088 141V131C173.298 131 171.77 130.585 170.321 129.758L165.36 138.44L160.399 147.122C164.923 149.708 169.88 151 175.088 151V141ZM165.36 138.44L170.43 129.821C168.994 128.976 167.912 127.894 167.067 126.458L158.448 131.528L149.829 136.598C152.397 140.965 155.923 144.491 160.29 147.059L165.36 138.44ZM158.448 131.528L167.13 126.567C166.303 125.118 165.888 123.59 165.888 121.8H155.888H145.888C145.888 127.008 147.18 131.965 149.766 136.489L158.448 131.528ZM155.888 121.8H165.888C165.888 119.879 166.324 118.407 167.067 117.142L158.448 112.072L149.829 107.002C147.159 111.54 145.888 116.553 145.888 121.8H155.888ZM158.448 112.072L167.067 117.142C167.912 115.706 168.994 114.624 170.43 113.779L165.36 105.16L160.29 96.5406C155.923 99.1094 152.397 102.635 149.829 107.002L158.448 112.072ZM165.36 105.16L170.321 113.842C171.77 113.015 173.298 112.6 175.088 112.6V102.6V92.6C169.88 92.6 164.923 93.8922 160.399 96.4776L165.36 105.16ZM175.088 102.6V112.6H226.288V102.6V92.6H175.088V102.6ZM226.288 102.6H216.288V115.4H226.288H236.288V102.6H226.288ZM226.288 115.4V105.4H175.088V115.4V125.4H226.288V115.4ZM175.088 115.4V105.4C170.614 105.4 166.543 107.115 163.409 110.249L170.48 117.32L177.551 124.391C177.349 124.593 176.978 124.886 176.438 125.111C175.896 125.337 175.41 125.4 175.088 125.4V115.4ZM170.48 117.32L163.409 110.249C160.216 113.442 158.688 117.534 158.688 121.8H168.688H178.688C178.688 122.031 178.646 122.488 178.421 123.05C178.191 123.624 177.862 124.08 177.551 124.391L170.48 117.32ZM168.688 121.8H158.688C158.688 126.059 160.202 130.052 163.169 133.231L170.48 126.408L177.791 119.585C178.005 119.815 178.266 120.183 178.456 120.672C178.645 121.156 178.688 121.565 178.688 121.8H168.688ZM170.48 126.408L163.657 133.719C166.836 136.686 170.829 138.2 175.088 138.2V128.2V118.2C175.323 118.2 175.732 118.243 176.216 118.432C176.705 118.622 177.073 118.883 177.303 119.097L170.48 126.408ZM175.088 128.2V138.2H210.288V128.2V118.2H175.088V128.2ZM210.288 128.2V138.2C212.754 138.2 214.67 138.779 216.311 139.789L221.552 131.272L226.793 122.755C221.778 119.669 216.185 118.2 210.288 118.2V128.2ZM221.552 131.272L216.567 139.941C218.449 141.023 219.865 142.439 220.947 144.321L229.616 139.336L238.285 134.351C235.441 129.406 231.482 125.447 226.537 122.603L221.552 131.272ZM229.616 139.336L221.099 144.577C222.109 146.218 222.688 148.134 222.688 150.6H232.688H242.688C242.688 144.703 241.219 139.11 238.133 134.095L229.616 139.336Z" fill="black" mask="url(#path-2-outside-1_0_1)"/>
</g>
<defs>
<filter id="filter0_d_0_1" x="34.9453" y="92.5996" width="207.742" height="100.4" filterUnits="userSpaceOnUse" color-interpolation-filters="sRGB">
<feFlood flood-opacity="0" result="BackgroundImageFix"/>
<feColorMatrix in="SourceAlpha" type="matrix" values="0 0 0 0 0 0 0 0 0 0 0 0 0 0 0 0 0 0 127 0" result="hardAlpha"/>
<feOffset dx="-10" dy="10"/>
<feComposite in2="hardAlpha" operator="out"/>
<feColorMatrix type="matrix" values="0 0 0 0 0 0 0 0 0 0 0 0 0 0 0 0 0 0 0.25 0"/>
<feBlend mode="normal" in2="BackgroundImageFix" result="effect1_dropShadow_0_1"/>
<feBlend mode="normal" in="SourceGraphic" in2="effect1_dropShadow_0_1" result="shape"/>
</filter>
</defs>
</svg>

