<svg viewBox="0 0 264 220" xmlns="http://www.w3.org/2000/svg">
<path d="M179.058 0C191.773 0 202.081 10.1967 202.081 22.7695V160.281C202.169 162.388 203.072 164.378 204.599 165.833C206.125 167.288 208.156 168.093 210.265 168.08C212.371 168.09 214.401 167.284 215.925 165.829C217.449 164.375 218.35 162.386 218.438 160.281V78.0889C218.454 75.1132 219.056 72.1698 220.209 69.4268C221.362 66.6837 223.045 64.1945 225.16 62.1016C227.276 60.0086 229.783 58.3526 232.538 57.2285C235.293 56.1045 238.243 55.5339 241.219 55.5498C244.195 55.5339 247.146 56.1047 249.902 57.2295C252.658 58.3543 255.166 60.0114 257.281 62.1055C259.397 64.1996 261.08 66.6901 262.232 69.4346C263.385 72.1788 263.986 75.1232 264 78.0996V150.271C263.988 152.163 263.226 153.973 261.882 155.303C260.537 156.633 258.719 157.375 256.828 157.366C255.891 157.372 254.961 157.193 254.093 156.84C253.224 156.486 252.434 155.965 251.767 155.307C251.1 154.648 250.569 153.864 250.205 153C249.841 152.136 249.65 151.209 249.645 150.271V78.0996C249.639 76.999 249.417 75.9101 248.99 74.8955C248.564 73.8808 247.942 72.9598 247.159 72.1855C246.377 71.4113 245.449 70.7987 244.43 70.3828C243.411 69.967 242.319 69.7559 241.219 69.7617C240.118 69.756 239.027 69.967 238.008 70.3828C236.989 70.7987 236.062 71.4114 235.279 72.1855C234.497 72.9597 233.875 73.8809 233.448 74.8955C233.022 75.9101 232.799 76.999 232.793 78.0996V160.292C232.777 163.234 232.182 166.145 231.041 168.857C229.9 171.57 228.236 174.031 226.145 176.101C224.053 178.17 221.573 179.808 218.849 180.919C216.124 182.03 213.207 182.594 210.265 182.578C207.322 182.594 204.405 182.03 201.681 180.919C198.956 179.808 196.478 178.17 194.386 176.101C192.294 174.031 190.63 171.57 189.489 168.857C188.349 166.145 187.753 163.235 187.737 160.292V22.792C187.646 20.5579 186.692 18.4462 185.075 16.9014C183.459 15.3565 181.305 14.4985 179.069 14.5088C176.833 14.4954 174.678 15.3507 173.06 16.8936C171.441 18.4364 170.484 20.5471 170.39 22.7812L170.379 197.725C170.344 203.665 167.951 209.349 163.727 213.526C159.502 217.703 153.791 220.032 147.851 220C144.908 220.016 141.991 219.452 139.267 218.341C136.542 217.229 134.064 215.592 131.972 213.522C129.88 211.453 128.216 208.992 127.075 206.279C125.935 203.567 125.339 200.656 125.323 197.714V22.7695C125.309 20.4815 124.386 18.2932 122.759 16.6846C121.131 15.0758 118.932 14.1787 116.644 14.1904C114.355 14.1788 112.157 15.0759 110.529 16.6846C108.902 18.2932 107.98 20.4815 107.965 22.7695V176.913C107.93 182.919 105.512 188.665 101.242 192.89C96.9727 197.114 91.2011 199.471 85.1953 199.441C79.1874 199.474 73.4126 197.118 69.1406 192.894C64.8687 188.669 62.449 182.921 62.4141 176.913V78.0996C62.4082 76.999 62.1853 75.9101 61.7588 74.8955C61.3322 73.8809 60.7101 72.9597 59.9277 72.1855C59.1454 71.4114 58.2183 70.7987 57.1992 70.3828C56.1801 69.967 55.0889 69.756 53.9883 69.7617C52.8877 69.7559 51.7964 69.967 50.7773 70.3828C49.7582 70.7987 48.8303 71.4113 48.0479 72.1855C47.2655 72.9598 46.6434 73.8808 46.2168 74.8955C45.7903 75.9101 45.5673 76.999 45.5615 78.0996V119.9C45.5456 122.876 44.9444 125.819 43.791 128.562C42.6376 131.306 40.9552 133.795 38.8398 135.888C36.7244 137.981 34.2173 139.637 31.4619 140.761C28.7067 141.885 25.7569 142.455 22.7812 142.439C19.8057 142.455 16.8558 141.885 14.1006 140.761C11.3453 139.637 8.83805 137.981 6.72266 135.888C4.60728 133.795 2.92492 131.306 1.77148 128.562C0.618099 125.819 0.015899 122.876 0 119.9V104.742C0 100.815 3.21193 97.6358 7.17188 97.6357C11.1319 97.6357 14.3555 100.826 14.3555 104.742V119.9C14.3557 124.498 18.1284 128.227 22.7812 128.227C27.434 128.226 31.2068 124.498 31.207 119.9V78.0889C31.242 72.0829 33.6601 66.3365 37.9297 62.1123C42.1992 57.8883 47.9708 55.5314 53.9766 55.5605C59.9844 55.5284 65.7593 57.884 70.0312 62.1084C74.3032 66.3329 76.7229 72.081 76.7578 78.0889V176.913C76.7579 181.522 80.5313 185.251 85.1953 185.251C89.8481 185.251 93.621 181.522 93.6211 176.913V22.7695C93.6214 10.1969 103.928 0.000236573 116.644 0C129.359 0 139.667 10.1967 139.667 22.7695V197.714C139.667 200.607 141.229 203.28 143.759 204.732C146.289 206.173 149.413 206.173 151.943 204.732C153.185 204.029 154.217 203.008 154.936 201.775C155.654 200.543 156.034 199.141 156.035 197.714V22.7695C156.035 10.1969 166.342 0.000203943 179.058 0Z" />
</svg>
